<svg xmlns:dc="http://purl.org/dc/elements/1.1/" xmlns:cc="http://creativecommons.org/ns#" xmlns:rdf="http://www.w3.org/1999/02/22-rdf-syntax-ns#" xmlns:svg="http://www.w3.org/2000/svg" xmlns="http://www.w3.org/2000/svg" xmlns:sodipodi="http://sodipodi.sourceforge.net/DTD/sodipodi-0.dtd" xmlns:inkscape="http://www.inkscape.org/namespaces/inkscape" viewBox="0 0 64 80" version="1.1" xml:space="preserve" style="" x="0px" y="0px" fill-rule="evenodd" clip-rule="evenodd" stroke-linejoin="round" stroke-miterlimit="2"><path d="M 55.000194,32.999603 V 18.000156 h -2.000848 v 14.999447 c 0,0.552601 0.44716,1.000803 1.000424,1.000803 0.550738,0 1.000424,-0.448202 1.000424,-1.000803 z" style="" stroke-width="2.13246" fill="#000000"/><path d="m 2.9982563,18.000156 v 34.999309 c 0,1.656005 1.3440036,3.000609 3.0012712,3.000609 H 33.998761 c 0.550738,0 1.000424,-0.448201 1.000424,-0.999003 0,-0.552602 -0.449686,-1.000803 -1.000424,-1.000803 H 5.9995275 c -0.5532647,0 -1.0004238,-0.448201 -1.0004238,-1.000803 V 18.000156 Z" style="" stroke-width="2.13246" fill="#000000"/><path d="m 20.999468,6.0001187 c 0,-1.6555051 -1.344212,-3.0000093 -3.000003,-3.0000093 -1.655791,0 -3.000003,1.3445042 -3.000003,3.0000093 0,0 0,6.0000183 0,6.0000183 0,1.655506 1.344212,3.00001 3.000003,3.00001 1.655791,0 3.000003,-1.344504 3.000003,-3.00001 0,0 0,-6.0000183 0,-6.0000183 z m -2.000002,0 v 6.0000183 c 0,0.552002 -0.448001,1.000004 -1.000001,1.000004 -0.552001,0 -1.000001,-0.448002 -1.000001,-1.000004 V 6.0001187 c 0,-0.5520017 0.448,-1.0000031 1.000001,-1.0000031 0.552,0 1.000001,0.4480014 1.000001,1.0000031 z" style="" stroke-width="0.324444" fill="#000000"/><path d="m 31.998969,6.0001187 c 0,-1.6555051 -1.344212,-3.0000093 -3.000003,-3.0000093 -1.655791,0 -3.000003,1.3445042 -3.000003,3.0000093 v 6.0000183 c 0,1.655506 1.344212,3.00001 3.000003,3.00001 1.655791,0 3.000003,-1.344504 3.000003,-3.00001 0,0 0,-6.0000183 0,-6.0000183 z m -2.000002,0 v 6.0000183 c 0,0.552002 -0.448001,1.000004 -1.000001,1.000004 -0.552001,0 -1.000001,-0.448002 -1.000001,-1.000004 0,0 0,-6.0000183 0,-6.0000183 0,-0.5520017 0.448,-1.0000031 1.000001,-1.0000031 0.552,0 1.000001,0.4480014 1.000001,1.0000031 z" style="" stroke-width="0.324444" fill="#000000"/><path d="m 42.999537,6.0001187 c 0,-1.6555051 -1.344212,-3.0000093 -3.000003,-3.0000093 -1.655791,0 -3.000003,1.3445042 -3.000003,3.0000093 v 6.0000183 c 0,1.655506 1.344212,3.00001 3.000003,3.00001 1.655791,0 3.000003,-1.344504 3.000003,-3.00001 0,0 0,-6.0000183 0,-6.0000183 z m -2.000002,0 v 6.0000183 c 0,0.552002 -0.448001,1.000004 -1.000001,1.000004 -0.552001,0 -1.000001,-0.448002 -1.000001,-1.000004 0,0 0,-6.0000183 0,-6.0000183 0,-0.5520017 0.448,-1.0000031 1.000001,-1.0000031 0.552,0 1.000001,0.4480014 1.000001,1.0000031 z" style="" stroke-width="0.324444" fill="#000000"/><path d="m 47.99935,35.000338 c -7.175022,0 -13.000041,5.824864 -13.000041,12.99986 0,7.174995 5.825019,12.999859 13.000041,12.999859 7.175022,0 13.000041,-5.824864 13.000041,-12.999859 0,-7.174996 -5.825019,-12.99986 -13.000041,-12.99986 z m 0,1.999664 c 6.071019,0 11.000034,4.929203 11.000034,11.000196 0,6.070992 -4.929015,11.000195 -11.000034,11.000195 -6.071019,0 -11.000034,-4.929203 -11.000034,-11.000195 0,-6.070993 4.929015,-11.000196 11.000034,-11.000196 z" style="" stroke-width="0.505293" fill="#000000"/><circle cx="47.998817" cy="56.000221" r="1.0000031" style="" stroke-width="0.500002" fill="#000000"/><circle cx="39.998791" cy="48.000198" r="1.0000031" style="" stroke-width="0.500002" fill="#000000"/><circle cx="55.999374" cy="48.000198" r="1.0000031" style="" stroke-width="0.500002" fill="#000000"/><circle cx="47.998817" cy="40.000172" r="1.0000031" style="" stroke-width="0.500002" fill="#000000"/><circle cx="47.999352" cy="48.000252" r="2.0000062" style="" stroke-width="0.666669" fill="#000000"/><path d="m 43.291799,44.707771 4.000013,4.000012 c 0.390001,0.391002 1.024003,0.391002 1.414004,0 l 6.000019,-6.000018 c 0.390001,-0.390001 0.390001,-1.024003 0,-1.414004 -0.390002,-0.390002 -1.024003,-0.390002 -1.414005,0 l -5.293016,5.293016 c 0,0 -3.29301,-3.29301 -3.29301,-3.29301 -0.390002,-0.390002 -1.024003,-0.390002 -1.414005,0 -0.390001,0.390001 -0.390001,1.024003 0,1.414004 z" style="" stroke-width="1" fill="#000000"/><path d="m 24.292222,33.29338 -3.999786,3.99987 c -0.390683,0.389817 -0.390173,1.024208 -6.2e-5,1.414346 0.390112,0.390139 1.023497,0.389788 1.41418,-2.8e-5 l 3.999412,-4.000707 c 0.390683,-0.389816 0.390547,-1.023371 4.35e-4,-1.41351 -0.390484,-0.390974 -1.023869,-0.390624 -1.414179,2.9e-5 z" style="" stroke-width="0.654656" fill="#000000"/><rect x="-16.999914" y="-42.000767" width="12.999674" height="12.000037" transform="scale(-1)" style="" stroke-width="0.971011" fill="#000000"/><path d="m 20.292153,34.706861 3.999412,4.000707 c 0.390683,0.389816 1.024068,0.390167 1.41418,2.8e-5 0.390111,-0.390138 0.390621,-1.024529 -6.2e-5,-1.414346 l -3.999786,-3.99987 c -0.39031,-0.390653 -1.023695,-0.391003 -1.414179,-2.9e-5 -0.390112,0.390139 -0.390248,1.023694 4.35e-4,1.41351 z" style="" stroke-width="0.654656" fill="#000000"/><path d="m 34.999843,21.000213 c -1.655755,0 -3.000009,1.344258 -3.000009,3.000008 0,1.655749 1.344254,3.000008 3.000009,3.000008 1.655755,0 3.000009,-1.344259 3.000009,-3.000008 0,-1.65575 -1.344254,-3.000008 -3.000009,-3.000008 z m 0,2.000005 c 0.551918,0 1.000003,0.448086 1.000003,1.000003 0,0.551916 -0.448085,1.000002 -1.000003,1.000002 -0.551918,0 -1.000003,-0.448086 -1.000003,-1.000002 0,-0.551917 0.448085,-1.000003 1.000003,-1.000003 z" style="" stroke-width="0.0842154" fill="#000000"/><path d="m 45.999344,6.0003616 h 4.000012 c 0.552002,0 1.000003,-0.4490369 1.000003,-1.0006096 0,-0.5515728 -0.448001,-0.999431 -1.000003,-0.999431 h -4.000012 c -0.552002,0 -1.000003,0.4478582 -1.000003,0.999431 0,0.5515727 0.448001,1.0006096 1.000003,1.0006096 z" style="" stroke-width="0.971011" fill="#000000"/><path d="m 7.9992237,6.0003616 h 4.0000123 c 0.552002,0 1.000003,-0.4490369 1.000003,-1.0006096 0,-0.5515728 -0.448001,-0.999431 -1.000003,-0.999431 H 7.9992237 c -0.5520017,0 -1.0000031,0.4478582 -1.0000031,0.999431 0,0.5515727 0.4480014,1.0006096 1.0000031,1.0006096 z" style="" stroke-width="0.971011" fill="#000000"/><path d="m 41.998776,8.0001225 v 4.0000125 c 0,1.104003 -0.896002,2.000006 -2.000006,2.000006 -1.104003,0 -2.000006,-0.896003 -2.000006,-2.000006 V 8.0001225 h -7.000022 v 4.0000125 c 0,1.104003 -0.896003,2.000006 -2.000006,2.000006 -1.104003,0 -2.000006,-0.896003 -2.000006,-2.000006 V 8.0001225 h -7.000022 v 4.0000125 c 0,1.104003 -0.896003,2.000006 -2.000006,2.000006 -1.104004,0 -2.000006,-0.896003 -2.000006,-2.000006 V 8.0001225 H 7.9986709 c -2.7600086,0 -5.0000155,2.2400065 -5.0000155,5.0000155 v 2.000006 c 0,0.552002 0.4480014,1.000003 1.0000031,1.000003 H 53.998813 c 0.552002,0 1.000004,-0.448001 1.000004,-1.000003 v -2.000006 c 0,-2.760009 -2.240007,-5.0000155 -5.000016,-5.0000155 z" style="" stroke-width="1" fill="#000000"/><path d="M 28.999806,30.000191 V 18.000154 H 16.999769 v 12.000037 z m -9.70703,-5.293017 2.000006,2.000007 c 0.390001,0.391001 1.024003,0.391001 1.414004,0 l 5.000016,-5.000016 c 0.390001,-0.390001 0.390001,-1.024003 0,-1.414004 -0.390001,-0.390002 -1.024003,-0.390002 -1.414004,0 l -4.293014,4.293013 c 0,0 -1.293004,-1.293004 -1.293004,-1.293004 -0.390001,-0.390001 -1.024003,-0.390001 -1.414004,0 -0.390001,0.390001 -0.390001,1.024003 0,1.414004 z" style="" stroke-width="1" fill="#000000"/><path d="M 53.999884,30.000191 V 18.000154 H 40.999843 v 12.000037 z m -5.586018,-6.000019 2.293007,-2.293007 c 0.390002,-0.390001 0.390002,-1.024003 0,-1.414004 -0.390001,-0.390002 -1.024003,-0.390002 -1.414004,0 l -2.293007,2.293007 -2.293007,-2.293007 c -0.390002,-0.390002 -1.024003,-0.390002 -1.414005,0 -0.390001,0.390001 -0.390001,1.024003 0,1.414004 l 2.293007,2.293007 -2.293007,2.293007 c -0.390001,0.390002 -0.390001,1.024003 0,1.414005 0.390002,0.390001 1.024003,0.390001 1.414005,0 l 2.293007,-2.293007 2.293007,2.293007 c 0.390001,0.390001 1.024003,0.390001 1.414004,0 0.390002,-0.390002 0.390002,-1.024003 0,-1.414005 z" style="" stroke-width="1" fill="#000000"/><path d="M 28.999806,55.000268 V 42.000228 H 16.999769 v 13.00004 z M 25.999797,50.000253 V 46.00024 c 0,-0.552001 -0.448002,-1.000003 -1.000003,-1.000003 -0.552002,0 -1.000003,0.448002 -1.000003,1.000003 v 4.000013 c 0,0.552002 0.448001,1.000003 1.000003,1.000003 0.552001,0 1.000003,-0.448001 1.000003,-1.000003 z m -4.000013,0 V 46.00024 c 0,-0.552001 -0.448001,-1.000003 -1.000003,-1.000003 -0.552002,0 -1.000003,0.448002 -1.000003,1.000003 v 4.000013 c 0,0.552002 0.448001,1.000003 1.000003,1.000003 0.552002,0 1.000003,-0.448001 1.000003,-1.000003 z" style="" stroke-width="1" fill="#000000"/><path d="M 34.249822,42.000229 H 28.999806 V 30.000192 h 12.000037 v 4.733014 c -2.993009,1.583005 -5.386016,4.149013 -6.750021,7.267023 z" style="" stroke-width="1" fill="#000000"/><text x="0" y="79" fill="#000000" font-size="5px" font-weight="bold" font-family="'Helvetica Neue', Helvetica, Arial-Unicode, Arial, Sans-serif">Created by Ranah Pixel Studio</text><text x="0" y="84" fill="#000000" font-size="5px" font-weight="bold" font-family="'Helvetica Neue', Helvetica, Arial-Unicode, Arial, Sans-serif">from the Noun Project</text></svg>